<?xml version="1.0" encoding="UTF-8"?>
<svg version="1.1" xmlns="http://www.w3.org/2000/svg" width="1024" height="1024">
<path d="M0 0 C3.53459037 0.00679829 7.06913889 -0.00399997 10.60371988 -0.01239584 C16.77932726 -0.02469099 22.95485858 -0.02600639 29.13047402 -0.01984541 C38.31445018 -0.01070795 47.49835671 -0.0188234 56.68232755 -0.03013665 C73.09153157 -0.04975341 89.50070392 -0.05216055 105.90991686 -0.04694145 C120.27279772 -0.04237574 134.63566607 -0.04299408 148.99854653 -0.04878179 C150.92875949 -0.04953868 152.85897245 -0.05029466 154.78918541 -0.05104974 C157.69821947 -0.05219499 160.60725353 -0.05334488 163.51628759 -0.05450898 C190.54469315 -0.06520642 217.57309456 -0.06994704 244.60150139 -0.06203882 C245.61931513 -0.06174165 246.63712887 -0.06144447 247.68578545 -0.0611383 C255.9499535 -0.05868962 264.2141215 -0.0560779 272.47828949 -0.05345416 C304.70533497 -0.04335393 336.93232833 -0.05170598 369.15936654 -0.07494871 C405.40960334 -0.10105106 441.65980878 -0.11386129 477.91005533 -0.10676096 C481.779152 -0.10604496 485.64824868 -0.10537056 489.51734536 -0.10472052 C490.94623332 -0.1044658 490.94623332 -0.1044658 492.4039877 -0.10420594 C506.75059797 -0.10190804 521.09717902 -0.10985559 535.44378274 -0.12301199 C551.76964635 -0.13795722 568.09544169 -0.13872102 584.42130389 -0.12094108 C593.54350924 -0.11141394 602.66555512 -0.11273912 611.78774965 -0.13017577 C617.89828585 -0.14073182 624.00870166 -0.13647231 630.11922616 -0.12069573 C633.58933251 -0.11213532 637.05912847 -0.10946024 640.52921786 -0.12496505 C693.94245871 -0.31415487 741.35814583 17.65245777 779.65057747 55.20410402 C801.47863204 77.17494227 817.34497695 105.45143818 825.71307747 135.14160402 C826.07030892 136.38937624 826.07030892 136.38937624 826.43475716 137.66235598 C831.27970217 155.67461119 831.96895395 173.28492997 831.91098014 191.84464558 C831.90327623 195.39374992 831.91318637 198.94281652 831.92071014 202.4919153 C831.93148172 208.69441427 831.93125592 214.89683472 831.92356865 221.09933718 C831.91216832 230.32304272 831.91804973 239.54668267 831.92719358 248.77038785 C831.94295263 265.24889401 831.94163688 281.72736518 831.93295684 298.20587464 C831.92539827 312.62683765 831.92344561 327.04778787 831.92702477 341.46875246 C831.92725393 342.4268137 831.92748308 343.38487495 831.92771918 344.37196835 C831.92865326 348.26144124 831.92960846 352.15091412 831.93059847 356.04038699 C831.93976725 392.49690824 831.93146814 428.95340725 831.91530778 465.40992506 C831.90107188 497.77101746 831.9023458 530.13207444 831.91669076 562.49316652 C831.93276855 598.88471258 831.9391169 635.276239 831.92985396 671.66778811 C831.92889187 675.5500106 831.92795335 679.43223309 831.92702477 683.31445559 C831.92666892 684.74821842 831.92666892 684.74821842 831.92630589 686.21094616 C831.92289921 700.61980366 831.92687358 715.02864693 831.93446343 729.43750246 C831.94305405 745.82757133 831.94086936 762.21759985 831.9246212 778.60766371 C831.91583598 787.77088058 831.915203 796.93401001 831.92655972 806.09722455 C831.93331838 812.22875192 831.92904368 818.36020962 831.91604541 824.49172671 C831.90895404 827.97790134 831.90637384 831.4639031 831.91726336 834.95007189 C831.96268664 853.57481224 830.94799552 871.24498648 825.90057747 889.26660402 C825.52425179 890.62314089 825.52425179 890.62314089 825.14032357 892.00708254 C822.18450494 902.19186298 818.07049607 911.82513869 813.52557747 921.39160402 C813.03468636 922.42921877 813.03468636 922.42921877 812.53387826 923.48779543 C792.07630158 965.94071374 752.82572541 999.33182744 708.65350716 1014.94409426 C699.4563528 1018.0466887 690.06747985 1020.59832995 680.52557747 1022.39160402 C679.69515771 1022.56064924 678.86473795 1022.72969446 678.00915395 1022.90386226 C665.65324414 1025.05391453 653.18391082 1024.67737619 640.68386689 1024.65474049 C637.13573105 1024.65053963 633.5876154 1024.65798932 630.03948461 1024.663893 C623.83093751 1024.6726275 617.62242341 1024.67397694 611.41387169 1024.67038973 C602.18107971 1024.66506932 592.9483195 1024.67119149 583.71553097 1024.67947266 C566.26381779 1024.6946959 548.81211914 1024.69641943 531.3604007 1024.69394964 C517.88120377 1024.69211538 504.40201159 1024.69387937 490.92281525 1024.69817408 C488.98471616 1024.69877648 487.04661706 1024.69937768 485.10851796 1024.69997768 C482.18780179 1024.70088496 479.26708562 1024.70179363 476.34636946 1024.70271003 C449.1979388 1024.71113716 422.04950993 1024.71547694 394.90107815 1024.71130331 C393.87807651 1024.71114694 392.85507486 1024.71099056 391.80107317 1024.71082944 C386.61637082 1024.71002369 381.43166848 1024.70917792 376.24696615 1024.70831614 C375.21731153 1024.70814505 374.18765691 1024.70797397 373.12680063 1024.70779769 C371.0445896 1024.70745104 368.96237857 1024.70710251 366.88016755 1024.70675211 C334.48632532 1024.7013958 302.09251032 1024.70932376 269.69867318 1024.72778566 C233.28336026 1024.74851531 196.86806421 1024.7592265 160.45274507 1024.75521018 C156.56763622 1024.75481485 152.68252737 1024.7544533 148.79741852 1024.7541128 C147.36255694 1024.7539767 147.36255694 1024.7539767 145.89870825 1024.75383785 C131.4766335 1024.7526733 117.05457583 1024.75930936 102.63250535 1024.76992472 C86.22401917 1024.78199003 69.81557052 1024.78352037 53.40708378 1024.77113455 C44.23278117 1024.76451878 35.05856835 1024.76610735 25.88427298 1024.77972307 C19.74518309 1024.7879963 13.60616012 1024.78523288 7.46707562 1024.7737478 C3.97648993 1024.7675197 0.4860788 1024.76581633 -3.00449649 1024.77761113 C-21.64063199 1024.82783851 -39.31677844 1023.81711034 -57.34942253 1018.76660402 C-58.70595939 1018.39027834 -58.70595939 1018.39027834 -60.08990104 1018.00635012 C-70.27468148 1015.05053149 -79.90795719 1010.93652262 -89.47442253 1006.39160402 C-90.16616569 1006.06434328 -90.85790885 1005.73708254 -91.57061393 1005.39990481 C-134.02353224 984.94232813 -167.41464594 945.69175196 -183.02691276 901.51953371 C-186.1295072 892.32237935 -188.68114845 882.9335064 -190.47442253 873.39160402 C-190.64346774 872.56118426 -190.81251296 871.7307645 -190.98668076 870.8751805 C-193.13673303 858.51927069 -192.7601947 846.04993737 -192.737559 833.54989344 C-192.73335813 830.0017576 -192.74080782 826.45364195 -192.7467115 822.90551116 C-192.755446 816.69696406 -192.75679544 810.48844995 -192.75320823 804.27989824 C-192.74788782 795.04710626 -192.75400999 785.81434605 -192.76229116 776.58155752 C-192.7775144 759.12984434 -192.77923793 741.67814569 -192.77676814 724.22642725 C-192.77493388 710.74723032 -192.77669787 697.26803814 -192.78099258 683.7888418 C-192.78159499 681.8507427 -192.78219618 679.91264361 -192.78279618 677.97454451 C-192.78370346 675.05382834 -192.78461213 672.13311217 -192.78552853 669.21239601 C-192.79395566 642.06396535 -192.79829544 614.91553648 -192.79412181 587.7671047 C-192.79396544 586.74410306 -192.79380906 585.72110141 -192.79364795 584.66709971 C-192.79284219 579.48239737 -192.79199642 574.29769503 -192.79113464 569.1129927 C-192.79096356 568.08333808 -192.79079247 567.05368346 -192.7906162 565.99282718 C-192.79026954 563.91061615 -192.78992101 561.82840512 -192.78957061 559.7461941 C-192.7842143 527.35235187 -192.79214226 494.95853687 -192.81060417 462.56469973 C-192.83133381 426.14938681 -192.842045 389.73409076 -192.83802868 353.31877162 C-192.83763335 349.43366277 -192.8372718 345.54855392 -192.8369313 341.66344507 C-192.83684057 340.70687068 -192.83674984 339.75029629 -192.83665635 338.7647348 C-192.83549181 324.34266005 -192.84212786 309.92060238 -192.85274322 295.4985319 C-192.86480854 279.09004572 -192.86633887 262.68159707 -192.85395305 246.27311033 C-192.84733728 237.09880772 -192.84892585 227.9245949 -192.86254157 218.75029953 C-192.8708148 212.61120964 -192.86805139 206.47218667 -192.8565663 200.33310217 C-192.8503382 196.84251648 -192.84863483 193.35210535 -192.86042963 189.86153006 C-192.91065702 171.22539455 -191.89992884 153.54924811 -186.84942253 135.51660402 C-186.59853874 134.61224611 -186.34765495 133.7078882 -186.08916862 132.77612551 C-183.13334999 122.59134507 -179.01934112 112.95806935 -174.47442253 103.39160402 C-174.14716178 102.69986086 -173.81990104 102.0081177 -173.48272331 101.29541262 C-153.4569176 59.7384918 -114.846373 26.12938335 -71.52788932 10.73169191 C-69.18347413 9.92900157 -66.83273887 9.15243118 -64.47442253 8.39160402 C-63.7283776 8.15071047 -62.98233268 7.90981691 -62.21368034 7.66162356 C-41.64303029 1.175342 -21.47632472 -0.06184913 0 0 Z " fill="#FEFEFE" transform="translate(192.4744225256145,-0.3916040239855647)"/>
<path d="M0 0 C1.22355698 0.00222061 2.44711395 0.00444122 3.70774841 0.00672913 C4.38089081 0.0065831 5.0540332 0.00643707 5.74757385 0.00628662 C7.98229649 0.00698573 10.21693674 0.01477799 12.4516449 0.02259827 C13.99721226 0.02446245 15.54278022 0.02588635 17.08834839 0.02688599 C21.16380941 0.03071112 25.23923502 0.04054135 29.31468201 0.05158997 C33.47035747 0.0618042 37.62603864 0.06638363 41.78172302 0.07142639 C49.94124452 0.08216363 58.10073718 0.09923998 66.26023865 0.12025452 C65.68675728 4.41944853 65.07489941 8.13547683 63.3344574 12.11634827 C62.94967224 13.00515686 62.56488708 13.89396545 62.16844177 14.80970764 C61.76560974 15.71656311 61.36277771 16.62341858 60.94773865 17.55775452 C60.55650818 18.4607428 60.16527771 19.36373108 59.76219177 20.29408264 C58.01204206 24.30230279 56.2157049 28.26838419 54.2328949 32.16712952 C51.94708964 36.6666523 49.97846828 41.28733267 48.01023865 45.93275452 C47.61965271 46.84855286 47.22906677 47.7643512 46.8266449 48.707901 C44.94078365 53.13608935 43.06891309 57.56990698 41.21336365 62.01087952 C37.41270687 71.10449866 33.50826126 80.13517377 29.4047699 89.09706116 C27.19876694 93.93683367 25.16918132 98.81872479 23.21580505 103.76551819 C21.873142 107.07415006 20.36262513 110.27322877 18.82273865 113.49525452 C16.19503064 119.04279413 13.75379576 124.63721044 11.4282074 130.31947327 C10.32291003 132.96996896 9.15283957 135.57637346 7.94773865 138.18275452 C5.62071199 143.23928101 3.46628374 148.35920566 1.32273865 153.49525452 C-1.45840628 160.15696062 -4.36673661 166.72615046 -7.43507385 173.26087952 C-8.98711857 176.66236675 -10.36635131 180.11078122 -11.68507385 183.60853577 C-12.59075392 185.76539607 -13.58004154 187.80800851 -14.6421051 189.88978577 C-16.72533217 194.00579275 -18.47053813 198.21229913 -20.17726135 202.49525452 C-22.04214887 207.11035514 -23.91687729 211.64964119 -26.23976135 216.05775452 C-29.00694758 221.36456232 -31.0288107 226.93384943 -33.15162659 232.51966858 C-35.00989763 237.36645229 -37.07295333 241.97408453 -39.4936676 246.56947327 C-41.65610832 250.99603687 -43.35550418 255.61594599 -45.11476135 260.21400452 C-46.66757486 264.10948145 -48.56672856 267.80380343 -50.46388245 271.54066467 C-52.49286682 275.6428937 -54.27267626 279.84271462 -56.05226135 284.05775452 C-56.62702209 285.40704041 -56.62702209 285.40704041 -57.21339417 286.78358459 C-59.13426409 291.30000037 -61.03618033 295.8240382 -62.9233551 300.35462952 C-69.22008481 315.45709128 -69.22008481 315.45709128 -72.73194885 322.11244202 C-73.87230527 324.38431489 -74.79568223 326.7600567 -75.73976135 329.12025452 C-92.23976135 329.12025452 -108.73976135 329.12025452 -125.73976135 329.12025452 C-129.27529543 322.04918637 -132.51007467 315.36986813 -135.4624176 308.11634827 C-137.20512655 304.02870984 -139.21324936 300.09671752 -141.22413635 296.13587952 C-146.43726991 285.76335605 -150.96986963 275.06432699 -155.62770081 264.43544006 C-158.69782174 257.44463144 -161.83700695 250.49622323 -165.10694885 243.59681702 C-168.66662342 236.01760563 -172.07852167 228.38102281 -175.37965393 220.68592834 C-179.09109836 212.03714037 -182.93083185 203.54118125 -187.2280426 195.16712952 C-189.16975884 191.25359292 -190.80701533 187.24786812 -192.45069885 183.20228577 C-194.10319385 179.25132046 -195.91576466 175.38462431 -197.74073792 171.51087952 C-200.53004515 165.58616805 -203.26467439 159.63725579 -205.98976135 153.68275452 C-206.69286438 152.14699768 -206.69286438 152.14699768 -207.41017151 150.58021545 C-208.37369733 148.47530223 -209.33707497 146.37032117 -210.30030823 144.26527405 C-212.15699403 140.20865491 -214.01580571 136.15301241 -215.87501526 132.09754944 C-216.78388008 130.11479335 -217.69240947 128.13188346 -218.6006012 126.14881897 C-220.9609147 120.99570691 -223.32658399 115.84514919 -225.70069885 110.69837952 C-226.18860901 109.63877014 -226.67651917 108.57916077 -227.17921448 107.48744202 C-228.10063919 105.48663407 -229.02367619 103.4865674 -229.94874573 101.48744202 C-232.63497725 95.64887487 -235.16762866 89.76495649 -237.59425354 83.81361389 C-238.67452262 81.27364617 -239.85276749 78.82410091 -241.11476135 76.37025452 C-243.28624175 72.12908186 -245.22442208 67.80465242 -247.11476135 63.43275452 C-249.98266558 56.80351064 -252.97807153 50.24587933 -256.05226135 43.71009827 C-258.14284609 39.26276639 -260.20301455 34.8019679 -262.2514801 30.33509827 C-263.30024732 28.06965096 -264.36707196 25.81252005 -265.4467926 23.56166077 C-266.27243713 21.82722717 -266.27243713 21.82722717 -267.11476135 20.05775452 C-267.86886292 18.49347717 -267.86886292 18.49347717 -268.63819885 16.89759827 C-269.73976135 14.12025452 -269.73976135 14.12025452 -269.73976135 10.12025452 C-246.63976135 10.45025452 -223.53976135 10.78025452 -199.73976135 11.12025452 C-190.85087246 31.12025452 -190.85087246 31.12025452 -187.16163635 40.69056702 C-186.12277602 43.19638947 -185.04402629 45.54039351 -183.81007385 47.94447327 C-181.51657425 52.44925267 -179.69307701 57.09904777 -177.86476135 61.80775452 C-175.17396799 68.64482151 -172.32561115 75.32509299 -169.17726135 81.96400452 C-167.00221341 86.73965326 -165.12143742 91.62026311 -163.23194885 96.51478577 C-161.87432335 99.79512174 -160.36187076 102.90490662 -158.75294495 106.06385803 C-157.04296594 109.53449735 -155.58916384 113.10721341 -154.11476135 116.68275452 C-151.14336456 123.81888579 -148.09400416 130.91597633 -144.98976135 137.99525452 C-140.51606762 148.21296088 -136.23789194 158.50692631 -132.02589417 168.83460999 C-129.23992774 175.63171973 -126.28990602 182.31849939 -123.1811676 188.97377014 C-121.36485746 192.93864227 -119.69344774 196.95367717 -118.03468323 200.98646545 C-115.83693431 206.30515042 -113.55965023 211.59002552 -111.2905426 216.8785553 C-110.47582515 218.77774116 -109.66243289 220.67749105 -108.84913635 222.57728577 C-108.33351135 223.77998108 -107.81788635 224.98267639 -107.28663635 226.22181702 C-106.58812561 227.85111145 -106.58812561 227.85111145 -105.87550354 229.51332092 C-105.19945667 231.06508972 -104.49673239 232.60631244 -103.73976135 234.12025452 C-100.1052028 229.1522114 -97.91400663 224.02201144 -95.67726135 218.30775452 C-92.39900117 210.10660593 -88.96241752 201.99873541 -85.36476135 193.93275452 C-81.47297639 185.18237037 -77.76036307 176.376436 -74.17726135 167.49525452 C-70.4233494 158.19069777 -66.54700984 148.95552646 -62.51564026 139.76795959 C-59.29894944 132.43199362 -56.16273281 125.0643449 -53.05226135 117.68275452 C-50.09361221 110.66408745 -47.124683 103.65245098 -44.05226135 96.68275452 C-38.4251052 83.90960802 -33.10505539 71.00493454 -27.73976135 58.12025452 C-15.25511863 28.14231748 -15.25511863 28.14231748 -10.96632385 18.89369202 C-9.08541913 14.6406909 -7.39181735 10.31418476 -5.70606995 5.98060608 C-3.42175327 0.15018873 -3.42175327 0.15018873 0 0 Z " fill="#000000" transform="translate(695.7397613525391,303.87974548339844)"/>
<path d="M0 0 C20.13 0 40.26 0 61 0 C61.01458252 6.13150635 61.02916504 12.2630127 61.04418945 18.58032227 C61.09456434 38.85655219 61.16101569 59.132706 61.23571491 79.40886021 C61.28060613 91.70021772 61.32003613 103.99154669 61.34643555 116.28295898 C61.36946973 127.00099923 61.40292811 137.71894864 61.44870156 148.43691677 C61.47256075 154.10758636 61.49133731 159.77816639 61.49761391 165.44888496 C61.5036979 170.79639092 61.52381653 176.14366795 61.55427551 181.49108887 C61.5630029 183.44402916 61.56678944 185.39699944 61.56500816 187.34995842 C61.55111824 209.6238333 64.7845453 228.79338619 80.5 245.6875 C81.325 246.450625 82.15 247.21375 83 248 C83.47566406 248.46921875 83.95132813 248.9384375 84.44140625 249.421875 C95.84353763 260.08218097 112.84527966 265.45826611 128.27734375 265.140625 C146.06077281 264.22211216 161.02160507 259.93364184 174 247 C176.24268074 244.46021198 178.15415828 241.83712709 180 239 C180.43828125 238.39929688 180.8765625 237.79859375 181.328125 237.1796875 C191.90879354 221.94607435 191.31312134 201.99450226 191.4140625 184.265625 C191.43280222 182.17526509 191.45237766 180.08491253 191.4727478 177.99456787 C191.52377895 172.53015498 191.56355886 167.06571764 191.60089111 161.60119629 C191.64111401 156.01011248 191.69212236 150.41912781 191.7421875 144.828125 C191.83860262 133.88548661 191.92311609 122.94279185 192 112 C193.32 112 194.64 112 196 112 C196.44730469 113.08796875 196.89460937 114.1759375 197.35546875 115.296875 C200.49568046 122.93119869 203.63892314 130.56402959 206.82421875 138.1796875 C207.62441778 140.09910178 208.41845835 142.02109254 209.20703125 143.9453125 C211.30202054 149.03979438 213.47601681 154.07379266 215.8125 159.0625 C219.36377666 166.68783009 222.58528581 174.44039751 225.82568359 182.20117188 C227.5618005 186.33897732 229.32216771 190.46638728 231.08007812 194.5949707 C232.95510198 199.0088207 234.81350098 203.42957817 236.67041016 207.85107422 C237.92612908 210.82504828 239.20197217 213.78967295 240.48046875 216.75390625 C241.21717904 218.50216914 241.95291734 220.25084206 242.6875 222 C243.02652344 222.76948975 243.36554688 223.53897949 243.71484375 224.33178711 C247.23725129 232.85515515 246.67037883 240.59783459 243.6875 249.1875 C243.47416016 249.84685547 243.26082031 250.50621094 243.04101562 251.18554688 C241.59434826 255.56873306 239.86656247 259.77970773 238 264 C237.34 264 236.68 264 236 264 C235.64421875 265.29164063 235.64421875 265.29164063 235.28125 266.609375 C233.87455866 270.33196061 231.94875189 273.16836152 229.5 276.25 C229.05567627 276.81428711 228.61135254 277.37857422 228.15356445 277.95996094 C206.72757478 304.70370815 174.39071686 318.75490986 141 323 C103.98133726 324.73870747 72.74304156 318.51026105 42.2265625 296.57421875 C41.29191162 295.90265747 41.29191162 295.90265747 40.33837891 295.2175293 C39.89671387 294.81574463 39.45504883 294.41395996 39 294 C39 293.34 39 292.68 39 292 C38.43539062 291.75636719 37.87078125 291.51273438 37.2890625 291.26171875 C20.99217927 282.27896571 8.94642901 257.53961972 3.87806416 240.38541222 C0.12330814 225.90879705 -0.42352985 211.73023148 -0.34057617 196.85302734 C-0.33972779 194.6927644 -0.34020915 192.5325006 -0.34190369 190.37223816 C-0.34275683 184.56556026 -0.32524259 178.75907208 -0.30418181 172.95243788 C-0.28530022 166.86263994 -0.28365559 160.77283661 -0.28010559 154.68301392 C-0.27081863 143.1769241 -0.24625059 131.67092083 -0.21605712 120.16486895 C-0.18240831 107.0546769 -0.16600085 93.94448049 -0.15097082 80.83425593 C-0.11969773 53.88944508 -0.06472795 26.94475269 0 0 Z " fill="#000000" transform="translate(262,315)"/>
</svg>
